<?xml version="1.0" encoding="UTF-8" standalone="no"?>
<!DOCTYPE svg PUBLIC "-//W3C//DTD SVG 1.1//EN"
 "http://www.w3.org/Graphics/SVG/1.1/DTD/svg11.dtd">
<!-- Generated by graphviz version 2.43.0 (0)
 -->
<!-- Title: snakemake_dag Pages: 1 -->
<svg width="435pt" height="404pt"
 viewBox="0.00 0.00 435.00 404.00" xmlns="http://www.w3.org/2000/svg" xmlns:xlink="http://www.w3.org/1999/xlink">
<g id="graph0" class="graph" transform="scale(1 1) rotate(0) translate(4 400)">
<title>snakemake_dag</title>
<polygon fill="white" stroke="transparent" points="-4,4 -4,-400 431,-400 431,4 -4,4"/>
<!-- 0 -->
<g id="node1" class="node">
<title>0</title>
<path fill="none" stroke="#d8ac56" stroke-width="2" stroke-dasharray="5,2" d="M207,-36C207,-36 177,-36 177,-36 171,-36 165,-30 165,-24 165,-24 165,-12 165,-12 165,-6 171,0 177,0 177,0 207,0 207,0 213,0 219,-6 219,-12 219,-12 219,-24 219,-24 219,-30 213,-36 207,-36"/>
<text text-anchor="middle" x="192" y="-15.5" font-family="sans" font-size="10.00">all</text>
</g>
<!-- 1 -->
<g id="node2" class="node">
<title>1</title>
<path fill="none" stroke="#59d856" stroke-width="2" stroke-dasharray="5,2" d="M207,-108C207,-108 177,-108 177,-108 171,-108 165,-102 165,-96 165,-96 165,-84 165,-84 165,-78 171,-72 177,-72 177,-72 207,-72 207,-72 213,-72 219,-78 219,-84 219,-84 219,-96 219,-96 219,-102 213,-108 207,-108"/>
<text text-anchor="middle" x="192" y="-87.5" font-family="sans" font-size="10.00">report</text>
</g>
<!-- 1&#45;&gt;0 -->
<g id="edge1" class="edge">
<title>1&#45;&gt;0</title>
<path fill="none" stroke="grey" stroke-width="2" d="M192,-71.7C192,-63.98 192,-54.71 192,-46.11"/>
<polygon fill="grey" stroke="grey" stroke-width="2" points="195.5,-46.1 192,-36.1 188.5,-46.1 195.5,-46.1"/>
</g>
<!-- 2 -->
<g id="node3" class="node">
<title>2</title>
<path fill="none" stroke="#56a9d8" stroke-width="2" stroke-dasharray="5,2" d="M219,-180C219,-180 165,-180 165,-180 159,-180 153,-174 153,-168 153,-168 153,-156 153,-156 153,-150 159,-144 165,-144 165,-144 219,-144 219,-144 225,-144 231,-150 231,-156 231,-156 231,-168 231,-168 231,-174 225,-180 219,-180"/>
<text text-anchor="middle" x="192" y="-159.5" font-family="sans" font-size="10.00">bcftools_call</text>
</g>
<!-- 2&#45;&gt;1 -->
<g id="edge2" class="edge">
<title>2&#45;&gt;1</title>
<path fill="none" stroke="grey" stroke-width="2" d="M192,-143.7C192,-135.98 192,-126.71 192,-118.11"/>
<polygon fill="grey" stroke="grey" stroke-width="2" points="195.5,-118.1 192,-108.1 188.5,-118.1 195.5,-118.1"/>
</g>
<!-- 3 -->
<g id="node4" class="node">
<title>3</title>
<path fill="none" stroke="#d85656" stroke-width="2" stroke-dasharray="5,2" d="M74,-324C74,-324 12,-324 12,-324 6,-324 0,-318 0,-312 0,-312 0,-300 0,-300 0,-294 6,-288 12,-288 12,-288 74,-288 74,-288 80,-288 86,-294 86,-300 86,-300 86,-312 86,-312 86,-318 80,-324 74,-324"/>
<text text-anchor="middle" x="43" y="-303.5" font-family="sans" font-size="10.00">samtools_sort</text>
</g>
<!-- 3&#45;&gt;2 -->
<g id="edge3" class="edge">
<title>3&#45;&gt;2</title>
<path fill="none" stroke="grey" stroke-width="2" d="M32.05,-287.92C21.24,-268.67 8.4,-237.28 24,-216 50.97,-179.21 103.55,-167.3 142.74,-163.76"/>
<polygon fill="grey" stroke="grey" stroke-width="2" points="143.19,-167.24 152.9,-163.01 142.66,-160.26 143.19,-167.24"/>
</g>
<!-- 9 -->
<g id="node10" class="node">
<title>9</title>
<path fill="none" stroke="#56d8a9" stroke-width="2" stroke-dasharray="5,2" d="M115,-252C115,-252 45,-252 45,-252 39,-252 33,-246 33,-240 33,-240 33,-228 33,-228 33,-222 39,-216 45,-216 45,-216 115,-216 115,-216 121,-216 127,-222 127,-228 127,-228 127,-240 127,-240 127,-246 121,-252 115,-252"/>
<text text-anchor="middle" x="80" y="-231.5" font-family="sans" font-size="10.00">samtools_index</text>
</g>
<!-- 3&#45;&gt;9 -->
<g id="edge12" class="edge">
<title>3&#45;&gt;9</title>
<path fill="none" stroke="grey" stroke-width="2" d="M52.15,-287.7C56.4,-279.64 61.56,-269.89 66.27,-260.98"/>
<polygon fill="grey" stroke="grey" stroke-width="2" points="69.38,-262.58 70.96,-252.1 63.19,-259.31 69.38,-262.58"/>
</g>
<!-- 4 -->
<g id="node5" class="node">
<title>4</title>
<path fill="none" stroke="#afd856" stroke-width="2" stroke-dasharray="5,2" d="M63.5,-396C63.5,-396 22.5,-396 22.5,-396 16.5,-396 10.5,-390 10.5,-384 10.5,-384 10.5,-372 10.5,-372 10.5,-366 16.5,-360 22.5,-360 22.5,-360 63.5,-360 63.5,-360 69.5,-360 75.5,-366 75.5,-372 75.5,-372 75.5,-384 75.5,-384 75.5,-390 69.5,-396 63.5,-396"/>
<text text-anchor="middle" x="43" y="-381" font-family="sans" font-size="10.00">bwa_map</text>
<text text-anchor="middle" x="43" y="-370" font-family="sans" font-size="10.00">sample: A</text>
</g>
<!-- 4&#45;&gt;3 -->
<g id="edge9" class="edge">
<title>4&#45;&gt;3</title>
<path fill="none" stroke="grey" stroke-width="2" d="M43,-359.7C43,-351.98 43,-342.71 43,-334.11"/>
<polygon fill="grey" stroke="grey" stroke-width="2" points="46.5,-334.1 43,-324.1 39.5,-334.1 46.5,-334.1"/>
</g>
<!-- 5 -->
<g id="node6" class="node">
<title>5</title>
<path fill="none" stroke="#d85656" stroke-width="2" stroke-dasharray="5,2" d="M235,-324C235,-324 173,-324 173,-324 167,-324 161,-318 161,-312 161,-312 161,-300 161,-300 161,-294 167,-288 173,-288 173,-288 235,-288 235,-288 241,-288 247,-294 247,-300 247,-300 247,-312 247,-312 247,-318 241,-324 235,-324"/>
<text text-anchor="middle" x="204" y="-303.5" font-family="sans" font-size="10.00">samtools_sort</text>
</g>
<!-- 5&#45;&gt;2 -->
<g id="edge4" class="edge">
<title>5&#45;&gt;2</title>
<path fill="none" stroke="grey" stroke-width="2" d="M191.27,-287.85C184.71,-277.92 177.39,-264.88 174,-252 168.56,-231.36 173.91,-207.65 180.16,-189.89"/>
<polygon fill="grey" stroke="grey" stroke-width="2" points="183.57,-190.79 183.87,-180.2 177.03,-188.29 183.57,-190.79"/>
</g>
<!-- 10 -->
<g id="node11" class="node">
<title>10</title>
<path fill="none" stroke="#56d8a9" stroke-width="2" stroke-dasharray="5,2" d="M265,-252C265,-252 195,-252 195,-252 189,-252 183,-246 183,-240 183,-240 183,-228 183,-228 183,-222 189,-216 195,-216 195,-216 265,-216 265,-216 271,-216 277,-222 277,-228 277,-228 277,-240 277,-240 277,-246 271,-252 265,-252"/>
<text text-anchor="middle" x="230" y="-231.5" font-family="sans" font-size="10.00">samtools_index</text>
</g>
<!-- 5&#45;&gt;10 -->
<g id="edge13" class="edge">
<title>5&#45;&gt;10</title>
<path fill="none" stroke="grey" stroke-width="2" d="M210.43,-287.7C213.36,-279.81 216.89,-270.3 220.14,-261.55"/>
<polygon fill="grey" stroke="grey" stroke-width="2" points="223.45,-262.7 223.65,-252.1 216.88,-260.26 223.45,-262.7"/>
</g>
<!-- 6 -->
<g id="node7" class="node">
<title>6</title>
<path fill="none" stroke="#afd856" stroke-width="2" stroke-dasharray="5,2" d="M224.5,-396C224.5,-396 183.5,-396 183.5,-396 177.5,-396 171.5,-390 171.5,-384 171.5,-384 171.5,-372 171.5,-372 171.5,-366 177.5,-360 183.5,-360 183.5,-360 224.5,-360 224.5,-360 230.5,-360 236.5,-366 236.5,-372 236.5,-372 236.5,-384 236.5,-384 236.5,-390 230.5,-396 224.5,-396"/>
<text text-anchor="middle" x="204" y="-381" font-family="sans" font-size="10.00">bwa_map</text>
<text text-anchor="middle" x="204" y="-370" font-family="sans" font-size="10.00">sample: B</text>
</g>
<!-- 6&#45;&gt;5 -->
<g id="edge10" class="edge">
<title>6&#45;&gt;5</title>
<path fill="none" stroke="grey" stroke-width="2" d="M204,-359.7C204,-351.98 204,-342.71 204,-334.11"/>
<polygon fill="grey" stroke="grey" stroke-width="2" points="207.5,-334.1 204,-324.1 200.5,-334.1 207.5,-334.1"/>
</g>
<!-- 7 -->
<g id="node8" class="node">
<title>7</title>
<path fill="none" stroke="#d85656" stroke-width="2" stroke-dasharray="5,2" d="M362,-324C362,-324 300,-324 300,-324 294,-324 288,-318 288,-312 288,-312 288,-300 288,-300 288,-294 294,-288 300,-288 300,-288 362,-288 362,-288 368,-288 374,-294 374,-300 374,-300 374,-312 374,-312 374,-318 368,-324 362,-324"/>
<text text-anchor="middle" x="331" y="-303.5" font-family="sans" font-size="10.00">samtools_sort</text>
</g>
<!-- 7&#45;&gt;2 -->
<g id="edge5" class="edge">
<title>7&#45;&gt;2</title>
<path fill="none" stroke="grey" stroke-width="2" d="M325.71,-287.79C319.04,-268.41 305.98,-236.9 286,-216 273.23,-202.64 256.35,-191.71 240.41,-183.31"/>
<polygon fill="grey" stroke="grey" stroke-width="2" points="241.69,-180.04 231.18,-178.67 238.54,-186.29 241.69,-180.04"/>
</g>
<!-- 11 -->
<g id="node12" class="node">
<title>11</title>
<path fill="none" stroke="#56d8a9" stroke-width="2" stroke-dasharray="5,2" d="M415,-252C415,-252 345,-252 345,-252 339,-252 333,-246 333,-240 333,-240 333,-228 333,-228 333,-222 339,-216 345,-216 345,-216 415,-216 415,-216 421,-216 427,-222 427,-228 427,-228 427,-240 427,-240 427,-246 421,-252 415,-252"/>
<text text-anchor="middle" x="380" y="-231.5" font-family="sans" font-size="10.00">samtools_index</text>
</g>
<!-- 7&#45;&gt;11 -->
<g id="edge14" class="edge">
<title>7&#45;&gt;11</title>
<path fill="none" stroke="grey" stroke-width="2" d="M343.11,-287.7C348.87,-279.47 355.86,-269.48 362.21,-260.42"/>
<polygon fill="grey" stroke="grey" stroke-width="2" points="365.16,-262.3 368.03,-252.1 359.42,-258.29 365.16,-262.3"/>
</g>
<!-- 8 -->
<g id="node9" class="node">
<title>8</title>
<path fill="none" stroke="#afd856" stroke-width="2" stroke-dasharray="5,2" d="M351.5,-396C351.5,-396 310.5,-396 310.5,-396 304.5,-396 298.5,-390 298.5,-384 298.5,-384 298.5,-372 298.5,-372 298.5,-366 304.5,-360 310.5,-360 310.5,-360 351.5,-360 351.5,-360 357.5,-360 363.5,-366 363.5,-372 363.5,-372 363.5,-384 363.5,-384 363.5,-390 357.5,-396 351.5,-396"/>
<text text-anchor="middle" x="331" y="-381" font-family="sans" font-size="10.00">bwa_map</text>
<text text-anchor="middle" x="331" y="-370" font-family="sans" font-size="10.00">sample: C</text>
</g>
<!-- 8&#45;&gt;7 -->
<g id="edge11" class="edge">
<title>8&#45;&gt;7</title>
<path fill="none" stroke="grey" stroke-width="2" d="M331,-359.7C331,-351.98 331,-342.71 331,-334.11"/>
<polygon fill="grey" stroke="grey" stroke-width="2" points="334.5,-334.1 331,-324.1 327.5,-334.1 334.5,-334.1"/>
</g>
<!-- 9&#45;&gt;2 -->
<g id="edge6" class="edge">
<title>9&#45;&gt;2</title>
<path fill="none" stroke="grey" stroke-width="2" d="M107.4,-215.88C121.91,-206.81 139.92,-195.55 155.59,-185.76"/>
<polygon fill="grey" stroke="grey" stroke-width="2" points="157.87,-188.46 164.5,-180.19 154.16,-182.52 157.87,-188.46"/>
</g>
<!-- 10&#45;&gt;2 -->
<g id="edge7" class="edge">
<title>10&#45;&gt;2</title>
<path fill="none" stroke="grey" stroke-width="2" d="M220.61,-215.7C216.24,-207.64 210.94,-197.89 206.1,-188.98"/>
<polygon fill="grey" stroke="grey" stroke-width="2" points="209.13,-187.22 201.29,-180.1 202.98,-190.56 209.13,-187.22"/>
</g>
<!-- 11&#45;&gt;2 -->
<g id="edge8" class="edge">
<title>11&#45;&gt;2</title>
<path fill="none" stroke="grey" stroke-width="2" d="M334.01,-215.88C305.69,-205.33 269.42,-191.82 240.62,-181.1"/>
<polygon fill="grey" stroke="grey" stroke-width="2" points="241.76,-177.79 231.16,-177.58 239.31,-184.35 241.76,-177.79"/>
</g>
</g>
</svg>
